<mxfile host="app.diagrams.net" modified="2022-02-17T09:51:03.781Z" agent="5.0 (Windows NT 10.0; Win64; x64) AppleWebKit/537.36 (KHTML, like Gecko) Chrome/98.0.4758.102 Safari/537.36" etag="yO41fPxa6OTnpT0vVXv4" version="16.5.6" type="github">
  <diagram id="xJNfMGexl-SvWWNC39A0" name="Page-1">
    <mxGraphModel dx="1422" dy="804" grid="1" gridSize="10" guides="1" tooltips="1" connect="1" arrows="1" fold="1" page="1" pageScale="1" pageWidth="827" pageHeight="1169" math="0" shadow="0">
      <root>
        <mxCell id="0" />
        <mxCell id="1" parent="0" />
        <mxCell id="iEZvG_xbLRXhc_3ezW3o-1" value="Actor" style="shape=umlActor;verticalLabelPosition=bottom;verticalAlign=top;html=1;" vertex="1" parent="1">
          <mxGeometry x="240" y="120" width="40" height="60" as="geometry" />
        </mxCell>
        <mxCell id="iEZvG_xbLRXhc_3ezW3o-2" value="Actor" style="shape=umlActor;verticalLabelPosition=bottom;verticalAlign=top;html=1;" vertex="1" parent="1">
          <mxGeometry x="560" y="120" width="40" height="60" as="geometry" />
        </mxCell>
        <mxCell id="iEZvG_xbLRXhc_3ezW3o-3" value="Actor" style="shape=umlActor;verticalLabelPosition=bottom;verticalAlign=top;html=1;" vertex="1" parent="1">
          <mxGeometry x="80" y="120" width="40" height="60" as="geometry" />
        </mxCell>
      </root>
    </mxGraphModel>
  </diagram>
</mxfile>
